<svg xmlns="http://www.w3.org/2000/svg" viewBox="0 0 802.98 299.85"><defs><style>.cls-1,.cls-2,.cls-7{fill:#3e0e1b;}.cls-2{font-size:140.52px;}.cls-2,.cls-7{font-family:MarathonII, Marathon II;}.cls-3{letter-spacing:-0.28em;}.cls-4{letter-spacing:-0.22em;}.cls-5{letter-spacing:0em;}.cls-6{letter-spacing:-0.06em;}.cls-7{font-size:134.72px;}.cls-8{fill:none;}</style></defs><g id="Layer_2" data-name="Layer 2"><g id="Layer_1-2" data-name="Layer 1"><g id="_Radial_Repeat_4" data-name=" Radial Repeat 4"><path class="cls-1" d="M31.64,196l-.44.84v-1.54C31.34,195.55,31.48,195.79,31.64,196Z"/><polygon class="cls-1" points="28.19 196.13 28.19 196.15 28.17 196.15 28.15 196.13 28.19 196.13"/><polygon class="cls-1" points="106.27 109 106.26 109 106.26 103 106.27 109"/></g><g id="_Radial_Repeat_7" data-name=" Radial Repeat 7"><path class="cls-1" d="M244.09,76.74c1.87,0,3.71.06,5.45.18a80.27,80.27,0,0,1,12.55,1.93,75.36,75.36,0,0,1,12.85,4.36c24,10.68,39.8,33.15,40.86,57.78a2.83,2.83,0,0,0,2.89,2.64h0a2.79,2.79,0,0,0,2.91-2.76C320.51,114.67,304,90.72,278.75,79A59.34,59.34,0,0,0,260.9,47.75c-19.55-18.23-49.44-23-74.38-12a64.54,64.54,0,0,0-18.14,11.94L136.64,77.34a2.91,2.91,0,0,1-3.9,0l-.58-.54a2.45,2.45,0,0,1,0-3.64l32.07-29.92c1.49-1.38,3-2.68,4.52-3.87a71.35,71.35,0,0,1,9.1-6.08,73.75,73.75,0,0,1,13.08-5.79c25.06-8.27,53.3-2.8,72.73,13.91a3.06,3.06,0,0,0,4,0h0a2.55,2.55,0,0,0,0-3.85C247,19.7,217.19,13.66,190.4,22a68.23,68.23,0,0,0-36.33-10.3c-27.36,0-52,16.09-61.42,40A56.7,56.7,0,0,0,89.5,63a58,58,0,0,0-.83,9.66v41.89a2.67,2.67,0,0,1-2.76,2.57h-.83a2.67,2.67,0,0,1-2.76-2.57V72.24c0-1.69.08-3.37.19-5a65.44,65.44,0,0,1,2.07-11.71,62.35,62.35,0,0,1,4.71-12c11.43-22.36,35.54-37.06,62-38a2.83,2.83,0,0,0,2.84-2.71h0a2.8,2.8,0,0,0-3-2.7C123,1,97.33,16.42,84.71,39.91a66.58,66.58,0,0,0-33.59,16.7c-19.32,18-24.57,45.71-13,68.83a59.7,59.7,0,0,0,6.66,10.47,62.82,62.82,0,0,0,6.42,6.93l33.75,31.44-4.5,4.18-34-31.71c-.89-.83-1.72-1.64-2.5-2.45l-.73-.76a64.65,64.65,0,0,1-7-8.86l-.43-.63-.4-.63c-.27-.43-.54-.86-.8-1.31a65.13,65.13,0,0,1-5-10.31c-8.86-23.35-3-49.66,15-67.77a2.59,2.59,0,0,0,0-3.78h0a3,3,0,0,0-4.14,0c-19.11,19.24-25.61,47.08-16.71,72a57.7,57.7,0,0,0-11,33.93c0,25.5,17.27,48.5,43,57.23a67.1,67.1,0,0,0,12.11,2.94,70.46,70.46,0,0,0,10.33.76h45a2.67,2.67,0,0,1,2.76,2.57v.78a2.67,2.67,0,0,1-2.76,2.57H77.49c-1.8,0-3.61-.05-5.39-.18a76,76,0,0,1-25.44-6.28C22.67,206,6.86,183.51,5.8,158.86a2.84,2.84,0,0,0-2.91-2.65h0A2.79,2.79,0,0,0,0,159c1.09,26.22,17.63,50.16,42.85,61.92A59.44,59.44,0,0,0,60.72,252.1,68.08,68.08,0,0,0,107.08,270a69,69,0,0,0,28-5.89,65.56,65.56,0,0,0,10.7-6,64.27,64.27,0,0,0,7.46-6L185,222.5a2.9,2.9,0,0,1,3.91,0l.58.54a2.45,2.45,0,0,1,0,3.63l-32.09,29.94c-1.1,1-2.26,2-3.44,3a71.54,71.54,0,0,1-10.22,7,74.27,74.27,0,0,1-13,5.77c-25.07,8.28-53.29,2.8-72.72-13.91a3.06,3.06,0,0,0-4.05,0h0a2.56,2.56,0,0,0,0,3.87,82.49,82.49,0,0,0,77.25,15.54,68.56,68.56,0,0,0,36.36,10.3c27.35,0,52-16.1,61.39-40a56.51,56.51,0,0,0,3.15-11.31,57.76,57.76,0,0,0,.83-9.65V185.33a2.66,2.66,0,0,1,2.75-2.56h.85a2.66,2.66,0,0,1,2.76,2.56v42.26c0,1.7-.06,3.41-.2,5a62.4,62.4,0,0,1-2.06,11.68,64.11,64.11,0,0,1-4.68,12c-11.43,22.38-35.53,37.1-61.94,38.1a2.82,2.82,0,0,0-2.83,2.7h0a2.79,2.79,0,0,0,3,2.71c28.08-1,53.76-16.42,66.39-40a66.55,66.55,0,0,0,33.46-16.66c19.34-18,24.61-45.67,13.1-68.79a59.69,59.69,0,0,0-6.3-10,64,64,0,0,0-6.78-7.42l-31.83-29.65a2.39,2.39,0,0,1,0-3.55l.7-.65a2.83,2.83,0,0,1,3.81,0l32.13,30q1.9,1.78,3.71,3.71a68.91,68.91,0,0,1,7,9l.37.59A62.55,62.55,0,0,1,292.13,178c8.92,23.37,3.05,49.68-14.9,67.82a2.59,2.59,0,0,0,0,3.78h0a3,3,0,0,0,4.14,0c19.12-19.27,25.6-47.1,16.65-72a57.66,57.66,0,0,0,11.05-33.91c0-25.49-17.27-48.5-42.94-57.26a70.94,70.94,0,0,0-22.47-3.69H198.79A2.69,2.69,0,0,1,196,80v-.7a2.69,2.69,0,0,1,2.78-2.6Zm7.49-5.06a40.13,40.13,0,0,0-7-8.7c-11.61-10.82-29-14.33-44.37-9a42.17,42.17,0,0,0-10.36,5.28A40.77,40.77,0,0,0,185.25,63l-32,29.83a2.92,2.92,0,0,1-3.91,0h0a2.47,2.47,0,0,1,0-3.64l32-29.81a47.77,47.77,0,0,1,15.77-9.74c17.69-6.66,37.84-2.85,51.35,9.74a43.7,43.7,0,0,1,9.75,13.2A64,64,0,0,0,251.58,71.68Zm-79.1-20.13A58.91,58.91,0,0,1,189,40.67c22.74-10.09,50-5.71,67.79,10.9a54.35,54.35,0,0,1,15.32,24.65c-2.32-.85-4.66-1.58-7.05-2.2h0a48.9,48.9,0,0,0-12.54-18.48c-15.14-14.1-37.77-18.41-57.62-10.92a54.47,54.47,0,0,0-9.82,4.88,51.72,51.72,0,0,0-7.86,6l-32,29.82a2.89,2.89,0,0,1-3.9,0l-.6-.56a2.44,2.44,0,0,1,0-3.63Zm-6.22-17.24a44.52,44.52,0,0,0-12.89-1.67c-16.23.25-31,9.34-37.61,23.18a37.25,37.25,0,0,0-3.31,11.11,34.1,34.1,0,0,0-.3,5.42v42.18a2.67,2.67,0,0,1-2.76,2.57h0a2.67,2.67,0,0,1-2.76-2.57V72.42a41.44,41.44,0,0,1,3.85-16.8l.38-.81c7.81-16,25.12-26.23,43.95-26a50.48,50.48,0,0,1,15.48,2.63Q168.17,32.83,166.26,34.31ZM94.47,72.64a52.22,52.22,0,0,1,.75-8.81,51.55,51.55,0,0,1,2.86-10.28c8.56-21.81,31.07-36.47,56-36.47a62.09,62.09,0,0,1,29.53,7.33,78,78,0,0,0-7.39,3.51,56.18,56.18,0,0,0-21.37-4.47c-20.59-.29-39.41,10.47-48.49,27.54l-.83,1.58a47.63,47.63,0,0,0-3.69,10.68,47.13,47.13,0,0,0-1,9.13v42.15A2.67,2.67,0,0,1,98,117.1h-.8a2.67,2.67,0,0,1-2.76-2.57ZM55.27,139a59.19,59.19,0,0,1-5.85-6.32,54.6,54.6,0,0,1-6.07-9.55C32.82,102.08,37.6,76.87,55.21,60.43A60.44,60.44,0,0,1,81.76,46.09a63.31,63.31,0,0,0-2.36,6.65h0a54,54,0,0,0-19.8,11.68c-15,14-19.65,34.91-11.88,53.3a47.49,47.49,0,0,0,5.85,10.17,49.59,49.59,0,0,0,6.05,6.74l33.92,31.62-4.5,4.2ZM57.84,113a38.61,38.61,0,0,0,6,10.27,43.59,43.59,0,0,0,3.67,3.92l34,31.65-3.9,3.63L63.7,130.81a43.88,43.88,0,0,1-5.39-6,43.26,43.26,0,0,1-5.22-9.08c-6.92-16.38-2.76-35,10.61-47.49a47.45,47.45,0,0,1,14.12-9.09,53.22,53.22,0,0,0-.93,6.16,41.57,41.57,0,0,0-9.33,6.55C56.06,82.6,52.26,98.73,57.84,113Zm-25,21.83v0h0l0,0Zm.45,5.65A62.08,62.08,0,0,0,37.79,146a37.49,37.49,0,0,0-1.45,9.6c-.29,15.19,9,29.27,23.7,35.88a43.16,43.16,0,0,0,11.77,3.4,42.39,42.39,0,0,0,5.79.47h45.27a2.67,2.67,0,0,1,2.76,2.58h0a2.67,2.67,0,0,1-2.76,2.57H77.62a51.93,51.93,0,0,1-8.69-.74,50.33,50.33,0,0,1-10.22-2.91c-17.33-7-28.53-23-28.53-40.6A41.33,41.33,0,0,1,33.27,140.44Zm44.62,71.32a64.7,64.7,0,0,1-9.4-.68,62.72,62.72,0,0,1-11-2.67c-23.4-8-39.14-28.94-39.14-52.19a52.13,52.13,0,0,1,7.86-27.59,70.19,70.19,0,0,0,3.38,6.27,46.21,46.21,0,0,0-5.16,21.3c0,19.8,12.58,37.66,32,45.55A57,57,0,0,0,67.89,205a58.81,58.81,0,0,0,9.73.83h45.25a2.67,2.67,0,0,1,2.76,2.57v.76a2.67,2.67,0,0,1-2.76,2.57Zm-7.84,16.41a39.64,39.64,0,0,0,7,8.7,43.62,43.62,0,0,0,29.71,11.43,44.74,44.74,0,0,0,14.63-2.44,42,42,0,0,0,10.74-5.57,39.08,39.08,0,0,0,4.21-3.42l32-29.85a2.9,2.9,0,0,1,3.9,0h0a2.44,2.44,0,0,1,0,3.63l-32,29.83a46.91,46.91,0,0,1-15.8,9.76c-17.68,6.65-37.81,2.81-51.31-9.76a44.24,44.24,0,0,1-9.74-13.18C65.65,227.7,67.83,228,70.05,228.17Zm79.07,20.13a55.11,55.11,0,0,1-6.8,5.46,59.2,59.2,0,0,1-9.75,5.44c-22.7,10.07-49.94,5.67-67.75-10.91a54.73,54.73,0,0,1-15.34-24.66q3.48,1.27,7.11,2.22A49.49,49.49,0,0,0,69.1,244.31a55.25,55.25,0,0,0,37.66,14.57,56.66,56.66,0,0,0,19.91-3.62,54.29,54.29,0,0,0,10.57-5.33,56.07,56.07,0,0,0,7.17-5.62l32-29.83a2.91,2.91,0,0,1,3.9,0l.6.56a2.45,2.45,0,0,1,0,3.64Zm7.44,16.34a45.44,45.44,0,0,0,10.3,1.35h.69c16,0,30.81-8.63,37.81-22.13A36.93,36.93,0,0,0,209,232.92a36.46,36.46,0,0,0,.5-5.42V185.33a2.66,2.66,0,0,1,2.75-2.56h0a2.67,2.67,0,0,1,2.76,2.56v42.14a42.34,42.34,0,0,1-.91,8.05,43.2,43.2,0,0,1-3.29,9.51c-7.8,16.08-25.09,26.27-44,26a49.75,49.75,0,0,1-15.54-2.65C153.12,267.23,154.88,266,156.56,264.64Zm70.61-37.44a53,53,0,0,1-3.62,19.11c-8.55,21.79-31,36.45-56,36.47A62.43,62.43,0,0,1,138,275.43a75.1,75.1,0,0,0,7.36-3.48,55.94,55.94,0,0,0,21.39,4.5h.81c20.88,0,39.87-11.4,48.51-29.19a46.38,46.38,0,0,0,4.71-19.76V185.33a2.66,2.66,0,0,1,2.75-2.56h.85a2.67,2.67,0,0,1,2.76,2.56Zm39.17-66.39a57.87,57.87,0,0,1,6.19,6.77,53.8,53.8,0,0,1,5.73,9.14c10.49,21.09,5.68,46.26-11.94,62.69a60.12,60.12,0,0,1-26.42,14.3,60.71,60.71,0,0,0,2.33-6.59h0a54.37,54.37,0,0,0,19.82-11.71c15-14,19.67-34.9,11.9-53.31l-.73-1.71h0a44.81,44.81,0,0,0-4.85-8.12,51.82,51.82,0,0,0-6.28-7.06l-32-29.87a2.39,2.39,0,0,1,0-3.55l.67-.63a2.84,2.84,0,0,1,3.81,0Zm-2.53,26.05a37.63,37.63,0,0,0-5.87-10.05,43.6,43.6,0,0,0-3.84-4.13L222,142.8a2.39,2.39,0,0,1,0-3.56h0a3,3,0,0,1,4,0L258,169a45.79,45.79,0,0,1,5.6,6.29,41.9,41.9,0,0,1,5,8.75l.34.79c6.46,16.21,2.23,34.46-11,46.72a47.14,47.14,0,0,1-14.16,9.11,53.1,53.1,0,0,0,.95-6.15A42.29,42.29,0,0,0,254.1,228C265.61,217.26,269.43,201.1,263.81,186.86Zm24.58-27.49a63.1,63.1,0,0,0-4-4.93A37.17,37.17,0,0,0,286,143.65c0-15.16-9.56-29.09-24.34-35.46a44.59,44.59,0,0,0-17.62-3.6H198.79A2.7,2.7,0,0,1,196,102h0a2.69,2.69,0,0,1,2.78-2.59H244a51.55,51.55,0,0,1,8.68.74,49.57,49.57,0,0,1,10.25,2.93c17.31,7,28.52,23,28.52,40.56A41.29,41.29,0,0,1,288.39,159.37ZM243.7,88a63.61,63.61,0,0,1,9.47.7,62.82,62.82,0,0,1,11,2.66c23.39,8,39.12,28.94,39.12,52.18a52.36,52.36,0,0,1-7.86,27.57,61,61,0,0,0-3.35-6.21,46.61,46.61,0,0,0,5.14-21.31c0-19.77-12.55-37.64-32-45.53a56.77,56.77,0,0,0-11.49-3.28A58.92,58.92,0,0,0,244,94H198.79A2.69,2.69,0,0,1,196,91.4v-.77A2.69,2.69,0,0,1,198.79,88ZM190.06,76.79l.13,27.9A5.63,5.63,0,0,0,196,110.1h0V110h48a39,39,0,0,1,5,.32,38.21,38.21,0,0,1,10.19,2.78c12.73,5.51,21,17.5,21,30.56a30.77,30.77,0,0,1-.5,5.51l-.35.11-34-31.73a6.1,6.1,0,0,0-8.2,0h0l-20.57,19.18a5.77,5.77,0,0,0,0,8.58L250,176.5a34.76,34.76,0,0,1,3.32,3.57A32,32,0,0,1,250,224.15a35.17,35.17,0,0,1-4.89,3.82V182.59a5.61,5.61,0,0,0-5.79-5.41h0v.18h-30a5.61,5.61,0,0,0-5.8,5.41h.15v44.68a32.41,32.41,0,0,1-3.57,14.06C194,253.31,181,260.86,167,260.59a35.45,35.45,0,0,1-5.16-.43l33.85-31.58a5.14,5.14,0,0,0,0-7.63h0l-.1.09-21.19-19.76a6.09,6.09,0,0,0-8.19,0h0l.12.11-34,31.66a34.37,34.37,0,0,1-3.63,2.95A36.84,36.84,0,0,1,113,242.42,38,38,0,0,1,81.17,233a34,34,0,0,1-4.07-4.53h48.67a5.61,5.61,0,0,0,5.79-5.4h-.13V195.16a5.62,5.62,0,0,0-5.8-5.41h0v.15h-48a41.77,41.77,0,0,1-5-.4,37.49,37.49,0,0,1-10.12-2.93c-12.64-5.71-20.67-17.85-20.42-30.93a28.48,28.48,0,0,1,.46-4.8l33.82,31.54a6.09,6.09,0,0,0,8.2,0h0l-.08-.07,21.18-19.77a5.14,5.14,0,0,0,0-7.64h0l-.09.09-34-31.65A32.44,32.44,0,0,1,68.49,120a32.83,32.83,0,0,1-5.2-8.84,32.26,32.26,0,0,1,8.36-35.43,34.3,34.3,0,0,1,4.87-3.78v45.35a5.61,5.61,0,0,0,5.8,5.4h0v-.14h30a5.62,5.62,0,0,0,5.8-5.41h-.16V72.29a29.58,29.58,0,0,1,.27-4.7A31.84,31.84,0,0,1,121.05,58c5.72-11.92,18.43-19.75,32.42-20a38.21,38.21,0,0,1,7.51.61c-.29.25-.58.51-.85.78L126,71.27h0a5.1,5.1,0,0,0,0,7.59l0,0,.11-.09L147.3,98.55a6.1,6.1,0,0,0,8.2,0h0l-.1-.09L189.34,66.8a36.9,36.9,0,0,1,3.94-3.19,35.72,35.72,0,0,1,8.93-4.52,38.1,38.1,0,0,1,38.23,7.71,33.33,33.33,0,0,1,4.07,4.54H195.88A5.63,5.63,0,0,0,190.06,76.79Z"/></g><text class="cls-2" transform="translate(354.02 126.21) scale(0.9 1)"><tspan class="cls-3">A</tspan><tspan class="cls-4" x="36.71" y="0"> </tspan><tspan class="cls-5" x="71.31" y="0">TRIP </tspan><tspan class="cls-4" x="355.52" y="0"> </tspan><tspan class="cls-6" x="390.12" y="0">T</tspan><tspan x="441.41" y="0">O</tspan></text><text class="cls-7" transform="translate(352.34 230.31)">MOROCCO</text><polyline class="cls-8" points="213.79 147.53 218.04 151.78 218.58 152.32"/><line class="cls-8" x1="239.68" y1="152.16" x2="244.12" y2="147.69"/></g></g></svg>