<svg width="45.5" height="26.5" viewBox="0 0 45.5 26.5" fill="none" xmlns="http://www.w3.org/2000/svg">
  <g style="transform: translate(-142.76px, -2px)">
    <path d="M140 0.0399933C139.64 0.729993 139.27 1.42999 138.9 2.14999C140.17 4.50999 141.46 6.89 142.8 9.35L146.7 2.14999C146.32 1.42999 145.96 0.729993 145.59 0.0399933H145.98L147.08 2.14999C145.667 4.74333 144.257 7.34667 142.85 9.96C142.57 9.69 138.97 3.13 138.53 2.12C138.89 1.43 139.25 0.729993 139.62 0.0399933H140Z" fill-rule="evenodd" clip-rule="evenodd" fill="#F7EBDB"/>
    <path d="M185.38 0.0399933C185.01 0.729993 184.65 1.42999 184.27 2.14999C185.55 4.50999 186.83 6.89 188.17 9.35L192.07 2.14999C191.69 1.42999 191.33 0.729993 190.96 0.0399933H191.35L192.45 2.14999C191.05 4.74333 189.64 7.34667 188.22 9.96C187.94 9.69 184.34 3.12 183.9 2.12L184.99 0.0399933H185.38Z" fill-rule="evenodd" clip-rule="evenodd" fill="#F7EBDB"/>
    <path d="M165.48 23.12C165.36 22.91 165.27 22.77 165.2 22.63C163.93 20.29 162.67 17.95 161.39 15.63C161.31 15.5065 161.267 15.3624 161.267 15.215C161.267 15.0676 161.31 14.9234 161.39 14.8C162.68 12.45 163.95 10.09 165.22 7.74L165.48 7.29C165.561 7.39848 165.634 7.51205 165.7 7.63C167.01 10.04 168.31 12.46 169.62 14.86C169.686 14.9575 169.721 15.0724 169.721 15.19C169.721 15.3076 169.686 15.4225 169.62 15.52C168.29 17.96 166.98 20.4 165.62 22.84C165.62 22.92 165.56 22.98 165.48 23.12ZM165.48 22.41C165.58 22.25 165.65 22.14 165.72 22.01C166.88 19.87 168.04 17.72 169.21 15.58C169.286 15.4622 169.326 15.3251 169.326 15.185C169.326 15.0449 169.286 14.9078 169.21 14.79C168.03 12.64 166.86 10.47 165.7 8.32C165.629 8.2029 165.552 8.08942 165.47 7.98C165.38 8.14 165.3 8.26 165.24 8.38C164.08 10.51 162.93 12.65 161.77 14.77C161.687 14.8945 161.643 15.0406 161.643 15.19C161.643 15.3394 161.687 15.4855 161.77 15.61C162.93 17.73 164.08 19.86 165.24 22C165.3 22.12 165.38 22.24 165.48 22.41Z" fill-rule="evenodd" clip-rule="evenodd" fill="#F7EBDB"/>
    <path d="M142.79 20.36L143.03 20.74C144.32 23.13 145.6 25.52 146.91 27.89C146.984 28.0012 147.023 28.1316 147.023 28.265C147.023 28.3983 146.984 28.5288 146.91 28.64C145.617 31.0133 144.333 33.3833 143.06 35.75L142.81 36.16L142.56 35.76C141.28 33.3867 139.997 31.02 138.71 28.66C138.639 28.5479 138.601 28.4178 138.601 28.285C138.601 28.1522 138.639 28.0221 138.71 27.91C140.02 25.51 141.31 23.11 142.61 20.71C142.64 20.62 142.69 20.52 142.79 20.36ZM142.79 35.45C142.848 35.3801 142.901 35.3066 142.95 35.23C144.15 33.0033 145.357 30.7767 146.57 28.55C146.624 28.4629 146.653 28.3625 146.653 28.26C146.653 28.1575 146.624 28.0571 146.57 27.97L142.97 21.33C142.916 21.2458 142.853 21.1685 142.78 21.1C142.7 21.25 142.63 21.35 142.57 21.47C141.41 23.6 140.27 25.73 139.1 27.85C139.017 27.9745 138.973 28.1206 138.973 28.27C138.973 28.4194 139.017 28.5655 139.1 28.69C140.25 30.8 141.39 32.92 142.54 35.04C142.61 35.16 142.68 35.28 142.79 35.45Z" fill-rule="evenodd" clip-rule="evenodd" fill="#F7EBDB"/>
    <path d="M188.17 20.36C188.28 20.55 188.37 20.69 188.44 20.82C189.71 23.16 190.97 25.51 192.25 27.82C192.333 27.9425 192.377 28.087 192.377 28.235C192.377 28.383 192.333 28.5275 192.25 28.65C190.97 30.99 189.71 33.33 188.45 35.65L188.18 36.11C188.09 35.98 188.03 35.9 187.98 35.81C186.67 33.39 185.37 30.98 184.05 28.57C183.987 28.4716 183.953 28.357 183.953 28.24C183.953 28.123 183.987 28.0084 184.05 27.91C185.39 25.46 186.71 23 188.05 20.54L188.17 20.36ZM188.17 35.45C188.21 35.3874 188.253 35.3272 188.3 35.27C189.51 33.02 190.72 30.78 191.95 28.54C192.004 28.4529 192.033 28.3525 192.033 28.25C192.033 28.1475 192.004 28.0471 191.95 27.96C190.75 25.76 189.557 23.56 188.37 21.36C188.31 21.2719 188.243 21.1883 188.17 21.11C188.119 21.1717 188.076 21.2387 188.04 21.31C186.84 23.52 185.64 25.74 184.43 27.95C184.361 28.0536 184.324 28.1754 184.324 28.3C184.324 28.4246 184.361 28.5464 184.43 28.65L187.9 35.05C187.983 35.188 188.073 35.3215 188.17 35.45Z" fill-rule="evenodd" clip-rule="evenodd" fill="#F7EBDB"/>
    <path d="M147.26 12.59L148.69 10.26C149.69 8.58999 150.75 6.92999 151.76 5.25999C151.815 5.14526 151.902 5.04859 152.01 4.98129C152.118 4.914 152.243 4.87886 152.37 4.88C155.14 4.82 157.92 4.74 160.69 4.66H160.98C160.91 4.79 160.87 4.90999 160.81 5.00999C159.38 7.34999 157.93 9.67999 156.51 12.01C156.45 12.1207 156.36 12.2123 156.25 12.2742C156.141 12.3361 156.016 12.3658 155.89 12.36C153.15 12.42 150.41 12.51 147.67 12.58C147.534 12.5915 147.397 12.5949 147.26 12.59ZM160.38 5.04C160.2 5.04 160.1 5.04 160.01 5.04C157.5 5.1 155.01 5.18 152.5 5.23C152.391 5.22816 152.283 5.25844 152.191 5.31709C152.098 5.37574 152.025 5.46019 151.98 5.56L148.08 11.92C148.01 12.0331 147.953 12.1539 147.91 12.28H148.2C150.72 12.21 153.2 12.13 155.76 12.08C155.878 12.0783 155.992 12.0436 156.091 11.98C156.19 11.9164 156.27 11.8263 156.32 11.72C157.6 9.62 158.88 7.53999 160.17 5.43999C160.23 5.32999 160.28 5.22 160.38 5.04Z" fill-rule="evenodd" clip-rule="evenodd" fill="#F7EBDB"/>
    <path d="M169.96 4.67C170.18 4.67 170.33 4.67 170.49 4.67C173.15 4.74 175.81 4.82 178.49 4.88C178.646 4.86833 178.803 4.90286 178.94 4.97931C179.076 5.05576 179.188 5.17075 179.26 5.31C180.66 7.62 182.08 9.91 183.49 12.2L183.69 12.58C183.577 12.5882 183.463 12.5882 183.35 12.58C180.6 12.51 177.86 12.42 175.12 12.36C174.987 12.3699 174.854 12.34 174.739 12.2741C174.623 12.2082 174.529 12.1093 174.47 11.99C173.05 9.66 171.62 7.35 170.19 4.99L169.96 4.67ZM170.6 5.06C170.65 5.17315 170.707 5.28333 170.77 5.39C172.07 7.5 173.38 9.62 174.67 11.74C174.724 11.8454 174.808 11.9327 174.911 11.9913C175.014 12.0499 175.132 12.0773 175.25 12.07L182.71 12.26H183.06C183.037 12.1842 183.006 12.1105 182.97 12.04L178.97 5.48C178.927 5.39474 178.859 5.32489 178.775 5.2801C178.691 5.23531 178.595 5.2178 178.5 5.23L171 5.03C170.866 5.02472 170.732 5.03479 170.6 5.06Z" fill-rule="evenodd" clip-rule="evenodd" fill="#F7EBDB"/>
    <path d="M169.95 25.71C170.05 25.53 170.11 25.42 170.18 25.31C171.59 23.01 173.01 20.72 174.4 18.42C174.471 18.2803 174.58 18.1637 174.714 18.0839C174.849 18.0042 175.004 17.9647 175.16 17.97C177.81 17.97 180.46 17.84 183.1 17.77H183.68C183.611 17.9138 183.534 18.054 183.45 18.19C182.05 20.49 180.63 22.78 179.23 25.08C179.167 25.2059 179.07 25.3113 178.95 25.3839C178.829 25.4565 178.691 25.4933 178.55 25.49C175.81 25.55 173.07 25.63 170.33 25.71H169.95ZM170.57 25.36C170.73 25.36 170.81 25.36 170.89 25.36C173.4 25.3 175.89 25.22 178.4 25.17C178.526 25.172 178.65 25.1384 178.758 25.0729C178.866 25.0075 178.953 24.9129 179.01 24.8C180.277 22.72 181.553 20.64 182.84 18.56L183.07 18.15C182.913 18.1412 182.757 18.1412 182.6 18.15C180.15 18.21 177.69 18.29 175.24 18.34C175.115 18.3362 174.991 18.3692 174.884 18.435C174.778 18.5007 174.693 18.5964 174.64 18.71C173.37 20.79 172.09 22.86 170.81 24.94C170.74 25.04 170.68 25.17 170.57 25.36Z" fill-rule="evenodd" clip-rule="evenodd" fill="#F7EBDB"/>
    <path d="M161.01 25.71L157.8 25.64L152.37 25.48C152.252 25.4908 152.134 25.4661 152.031 25.4091C151.927 25.352 151.844 25.2653 151.79 25.16L147.46 18.16C147.4 18.07 147.37 17.97 147.29 17.82H147.82L155.82 18.03C155.953 18.0198 156.086 18.0483 156.203 18.1122C156.32 18.1761 156.417 18.2726 156.48 18.39C157.91 20.75 159.36 23.09 160.81 25.39C160.9 25.47 160.9 25.55 161.01 25.71ZM147.9 18.13C147.93 18.2178 147.97 18.3018 148.02 18.38C149.353 20.54 150.687 22.7 152.02 24.86C152.07 24.9583 152.148 25.0395 152.244 25.093C152.34 25.1465 152.45 25.1698 152.56 25.16L160.07 25.36C160.176 25.3735 160.284 25.3735 160.39 25.36C160.34 25.26 160.32 25.2 160.29 25.15C158.957 22.99 157.623 20.8267 156.29 18.66C156.232 18.5576 156.145 18.4746 156.04 18.4213C155.935 18.3679 155.817 18.3466 155.7 18.36L148.39 18.17L147.9 18.13Z" fill-rule="evenodd" clip-rule="evenodd" fill="#F7EBDB"/>
  </g>
</svg>
