<svg width="11" height="11" viewBox="0 0 11 11" fill="none" xmlns="http://www.w3.org/2000/svg">
<g id="Iconly/Light-Outline/Message">
<g id="Message">
<path id="Fill 1" fill-rule="evenodd" clip-rule="evenodd" d="M5.39776 6.17137C5.09114 6.17137 4.78543 6.07008 4.52968 5.8675L2.47405 4.21016C2.32601 4.091 2.30309 3.8742 2.4218 3.72662C2.54143 3.5795 2.75776 3.55612 2.90534 3.67483L4.95914 5.33033C5.21718 5.53475 5.58064 5.53475 5.84051 5.3285L7.87368 3.67575C8.02126 3.5552 8.23759 3.57812 8.35768 3.7257C8.4773 3.87283 8.45484 4.08916 8.30772 4.20925L6.27089 5.86475C6.0133 6.06916 5.7053 6.17137 5.39776 6.17137Z" fill="#3E0E1A"/>
<g id="Group 5">
<mask id="mask0_32_7638" style="mask-type:alpha" maskUnits="userSpaceOnUse" x="0" y="0" width="11" height="10">
<path id="Clip 4" fill-rule="evenodd" clip-rule="evenodd" d="M0.458344 0.916656H10.3125V9.85416H0.458344V0.916656Z" fill="white"/>
</mask>
<g mask="url(#mask0_32_7638)">
<path id="Fill 3" fill-rule="evenodd" clip-rule="evenodd" d="M3.13449 9.16666H7.63532C7.63624 9.16574 7.63991 9.16666 7.64266 9.16666C8.16562 9.16666 8.62945 8.97966 8.98512 8.62445C9.39807 8.21332 9.62495 7.62253 9.62495 6.96116V3.81332C9.62495 2.5332 8.78803 1.60416 7.63532 1.60416H3.13541C1.9827 1.60416 1.14578 2.5332 1.14578 3.81332V6.96116C1.14578 7.62253 1.37312 8.21332 1.78562 8.62445C2.14128 8.97966 2.60557 9.16666 3.12807 9.16666H3.13449ZM3.1267 9.85416C2.41949 9.85416 1.78791 9.59749 1.30024 9.11166C0.757116 8.56991 0.458282 7.80632 0.458282 6.96116V3.81332C0.458282 2.16195 1.60916 0.916656 3.13541 0.916656H7.63532C9.16157 0.916656 10.3124 2.16195 10.3124 3.81332V6.96116C10.3124 7.80632 10.0136 8.56991 9.47049 9.11166C8.98328 9.59703 8.35124 9.85416 7.64266 9.85416H7.63532H3.13541H3.1267Z" fill="#3E0E1A"/>
</g>
</g>
</g>
</g>
</svg>
