<svg width="18" height="19" viewBox="0 0 18 19" fill="none" xmlns="http://www.w3.org/2000/svg">
<path d="M3.05264 12.413C2.25116 11.0619 1.97047 9.46471 2.26329 7.92131C2.5561 6.3779 3.40228 4.99448 4.64291 4.03081C5.88355 3.06715 7.4333 2.58953 9.00117 2.68764C10.569 2.78575 12.0472 3.45285 13.158 4.56366C14.2688 5.67448 14.9359 7.1526 15.034 8.72046C15.1321 10.2883 14.6545 11.8381 13.6909 13.0787C12.7272 14.3194 11.3438 15.1656 9.80039 15.4584C8.25699 15.7512 6.65978 15.4705 5.30868 14.6691L5.30869 14.669L3.08069 15.3056C2.98851 15.3319 2.89096 15.3331 2.79816 15.3091C2.70535 15.285 2.62067 15.2366 2.55288 15.1688C2.48509 15.101 2.43666 15.0163 2.41261 14.9235C2.38857 14.8307 2.38977 14.7332 2.41611 14.641L3.05269 12.413H3.05264Z" stroke="#6F6F6F" stroke-linecap="round" stroke-linejoin="round"/>
<path d="M10.3834 12.7766C9.67613 12.7776 8.97565 12.639 8.32206 12.3688C7.66846 12.0986 7.07461 11.7021 6.57452 11.202C6.07443 10.702 5.67793 10.1081 5.40775 9.45447C5.13756 8.80088 4.99901 8.10039 5.00001 7.39316C5.00161 6.89535 5.2006 6.4185 5.55332 6.06721C5.90604 5.71592 6.3837 5.51887 6.88151 5.51929C6.96316 5.51929 7.04336 5.54088 7.11398 5.58186C7.1846 5.62285 7.24314 5.68177 7.28365 5.75266L8.06924 7.12746C8.11662 7.21037 8.14106 7.3044 8.14004 7.39989C8.13903 7.49537 8.1126 7.58887 8.06347 7.67075L7.43255 8.72227C7.75714 9.4426 8.33391 10.0194 9.05424 10.344L10.1058 9.71306C10.1877 9.66393 10.2812 9.6375 10.3767 9.63649C10.4722 9.63547 10.5662 9.65991 10.6491 9.70729L12.0239 10.4929C12.0948 10.5334 12.1537 10.592 12.1947 10.6626C12.2357 10.7332 12.2573 10.8134 12.2573 10.8951C12.2558 11.3923 12.0582 11.8689 11.7073 12.2212C11.3564 12.5735 10.8806 12.7731 10.3834 12.7766Z" stroke="#6F6F6F" stroke-linecap="round" stroke-linejoin="round"/>
</svg>
